# xmcd
#
# Track frame offsets:
#	150
#	24831
#	38119
#	49034
#	55650
#	83208
#	97857
#	112313
#	123788
#	146008
#	169692
#	183874
#	195271
#	209800
#
# Disc length: 2910 seconds
#
# Revision: 1
# Processed by: cddbd v1.5.2PL0 Copyright (c) Steve Scherf et al.
# Submitted via: MusicWizard 7.2.0
#
DISCID=b50b5c0e
DTITLE=Willie, Boxcar - Famous Country Music Makers
DYEAR=2001
DGENRE=Country
TTITLE0=I Love The Sound Of A Whistle
TTITLE1=Bad News
TTITLE2=T For Texas (Blue Yodel No 1)
TTITLE3=Hobo Bill's Last Ride
TTITLE4=Jambalaya
TTITLE5=Rolling In My Sweet Baby's Arms
TTITLE6=He Stopped Loving Her Today
TTITLE7=Bumming Around
TTITLE8=Mule Train
TTITLE9=Kaw-Liga
TTITLE10=I'll Fly Away
TTITLE11=Wabash Cannonball
TTITLE12=Train Song Medley
TTITLE13=I Saw A Light
EXTD=Live From The Wembley Conference Centre 1982
EXTT0=
EXTT1=
EXTT2=
EXTT3=
EXTT4=
EXTT5=
EXTT6=
EXTT7=
EXTT8=
EXTT9=
EXTT10=
EXTT11=
EXTT12=
EXTT13=
PLAYORDER=
